<?xml version="1.0" encoding="UTF-8" standalone="no"?>
<!DOCTYPE svg PUBLIC "-//W3C//DTD SVG 1.1//EN" "http://www.w3.org/Graphics/SVG/1.1/DTD/svg11.dtd">
<svg version="1.1" xmlns="http://www.w3.org/2000/svg" xmlns:xlink="http://www.w3.org/1999/xlink" preserveAspectRatio="xMidYMid meet" viewBox="0 0 640 640" width="640" height="640"><defs><path d="M332.64 197.01L367.13 201.61L393.56 240.69L367.13 301.61L280.92 357.93L184.37 285.52L179.77 228.05L220 197.01L270.57 197.01L291.26 228.05L332.64 197.01Z" id="a2I1GZ1OsF"></path><mask id="maskc2oZ62J3Ga" x="169.77" y="187.01" width="233.79" height="180.92" maskUnits="userSpaceOnUse"><rect x="169.77" y="187.01" width="233.79" height="180.92" fill="white"></rect><use xlink:href="#a2I1GZ1OsF" opacity="1" fill="black"></use></mask></defs><g><g><g><g><filter id="shadow7992221" x="166.77" y="184.01" width="244.79" height="187.92" filterUnits="userSpaceOnUse" primitiveUnits="userSpaceOnUse"><feFlood></feFlood><feComposite in2="SourceAlpha" operator="in"></feComposite><feGaussianBlur stdDeviation="1"></feGaussianBlur><feOffset dx="5" dy="1" result="afterOffset"></feOffset><feFlood flood-color="#020511" flood-opacity="0.5"></feFlood><feComposite in2="afterOffset" operator="in"></feComposite><feMorphology operator="dilate" radius="1"></feMorphology><feComposite in2="SourceAlpha" operator="out"></feComposite></filter><path d="M332.64 197.01L367.13 201.61L393.56 240.69L367.13 301.61L280.92 357.93L184.37 285.52L179.77 228.05L220 197.01L270.57 197.01L291.26 228.05L332.64 197.01Z" id="czlojyEG" fill="white" fill-opacity="1" filter="url(#shadow7992221)"></path></g><use xlink:href="#a2I1GZ1OsF" opacity="1" fill="#e76b44" fill-opacity="1"></use><g mask="url(#maskc2oZ62J3Ga)"><use xlink:href="#a2I1GZ1OsF" opacity="1" fill-opacity="0" stroke="#000000" stroke-width="10" stroke-opacity="1"></use></g><g><filter id="shadow4783641" x="170.77" y="188.01" width="232.79" height="179.92" filterUnits="userSpaceOnUse" primitiveUnits="userSpaceOnUse"><feFlood></feFlood><feComposite in2="SourceAlpha" operator="out"></feComposite><feGaussianBlur stdDeviation="1"></feGaussianBlur><feOffset dx="1" dy="1" result="afterOffset"></feOffset><feFlood flood-color="#0e0707" flood-opacity="0.8"></feFlood><feComposite in2="afterOffset" operator="in"></feComposite><feMorphology operator="dilate" radius="1"></feMorphology><feComposite in2="SourceAlpha" operator="in"></feComposite></filter><path d="M332.64 197.01L367.13 201.61L393.56 240.69L367.13 301.61L280.92 357.93L184.37 285.52L179.77 228.05L220 197.01L270.57 197.01L291.26 228.05L332.64 197.01Z" id="aEecRLil" fill="white" fill-opacity="1" filter="url(#shadow4783641)"></path></g></g></g></g></svg>